<?xml version="1.0" encoding="iso-8859-1"?>
<!-- Generator: Adobe Illustrator 19.0.0, SVG Export Plug-In . SVG Version: 6.00 Build 0)  -->
<svg version="1.1" id="Capa_1" xmlns="http://www.w3.org/2000/svg" xmlns:xlink="http://www.w3.org/1999/xlink" x="0px" y="0px"
	 viewBox="0 0 469.333 469.333" style="enable-background:new 0 0 469.333 469.333;fill:#70768d;" xml:space="preserve">
<g>
	<g>
		<g>
			<path d="M202.667,0h-128C33.5,0,0,33.5,0,74.667v320c0,41.167,33.5,74.667,74.667,74.667h128c5.896,0,10.667-4.771,10.667-10.667
				v-448C213.333,4.771,208.562,0,202.667,0z M106.667,192c-29.417,0-53.333-23.927-53.333-53.333s23.917-53.333,53.333-53.333
				S160,109.26,160,138.667S136.083,192,106.667,192z"/>
			<path d="M394.667,0h-128C260.771,0,256,4.771,256,10.667v448c0,5.896,4.771,10.667,10.667,10.667h128
				c41.167,0,74.667-33.5,74.667-74.667v-320C469.333,33.5,435.833,0,394.667,0z M362.667,320
				c-29.417,0-53.333-23.927-53.333-53.333s23.917-53.333,53.333-53.333c29.417,0,53.333,23.927,53.333,53.333
				S392.083,320,362.667,320z"/>
		</g>
	</g>
</g>
<g>
</g>
<g>
</g>
<g>
</g>
<g>
</g>
<g>
</g>
<g>
</g>
<g>
</g>
<g>
</g>
<g>
</g>
<g>
</g>
<g>
</g>
<g>
</g>
<g>
</g>
<g>
</g>
<g>
</g>
</svg>
