<?xml version="1.0" encoding="iso-8859-1"?>
<!-- Generator: Adobe Illustrator 19.0.0, SVG Export Plug-In . SVG Version: 6.00 Build 0)  -->
<svg version="1.1" id="Layer_1" xmlns="http://www.w3.org/2000/svg" xmlns:xlink="http://www.w3.org/1999/xlink" x="0px" y="0px"
	 viewBox="0 0 469.333 469.333" style="enable-background:new 0 0 469.333 469.333;fill:#70768d" xml:space="preserve">
<g>
	<g>
		<path d="M426.667,0h-384C19.135,0,0,19.135,0,42.667v384c0,23.531,19.135,42.667,42.667,42.667h384
			c23.531,0,42.667-19.135,42.667-42.667v-384C469.333,19.135,450.198,0,426.667,0z M64,96c0-17.646,14.354-32,32-32h85.333
			c17.646,0,32,14.354,32,32v85.333c0,17.646-14.354,32-32,32H96c-17.646,0-32-14.354-32-32V96z M205.271,348.781
			c4.885,15.927,10.135,42.021-3.573,52.417c-13.667,10.354-38.063-1.438-52.365-10.104c-10.323,6.26-25.917,14.146-38.938,14.146
			c-5,0-9.625-1.167-13.417-4.042c-13.719-10.396-8.469-36.49-3.583-52.417c-14.833-13.438-33.531-34.271-28.542-50.323
			c5.281-16.979,32.094-18.615,49.74-17.76c6.354-20.135,17.823-46.031,34.74-46.031c16.917,0,28.385,25.896,34.74,46.031
			c17.594-0.792,44.438,0.76,49.74,17.75C238.812,314.51,220.115,335.344,205.271,348.781z M376.385,405.333h-91.438
			c-15.958,0-28.948-12.99-28.948-28.948c0-3.198,0.562-6.406,1.687-9.552c0.177-0.688,0.438-1.365,0.76-2.021
			c0.01-0.031,0.031-0.083,45.146-89.531c0.104-0.219,0.219-0.427,0.344-0.625c4.26-11.26,14.698-18.656,26.729-18.656
			c12.042,0,22.479,7.396,26.74,18.667c0.125,0.208,0.25,0.427,0.354,0.656l45.375,90.979c1.313,3.74,2.198,6.594,2.198,10.083
			C405.333,392.344,392.344,405.333,376.385,405.333z M330.667,213.333c-41.167,0-74.667-33.5-74.667-74.667S289.5,64,330.667,64
			s74.667,33.5,74.667,74.667S371.833,213.333,330.667,213.333z"/>
	</g>
</g>
<g>
</g>
<g>
</g>
<g>
</g>
<g>
</g>
<g>
</g>
<g>
</g>
<g>
</g>
<g>
</g>
<g>
</g>
<g>
</g>
<g>
</g>
<g>
</g>
<g>
</g>
<g>
</g>
<g>
</g>
</svg>
