<?xml version="1.0" encoding="iso-8859-1"?>
<!-- Generator: Adobe Illustrator 19.0.0, SVG Export Plug-In . SVG Version: 6.00 Build 0)  -->
<svg version="1.1" id="Capa_1" xmlns="http://www.w3.org/2000/svg" xmlns:xlink="http://www.w3.org/1999/xlink" x="0px" y="0px"
	 viewBox="0 0 512 512" style="enable-background:new 0 0 512 512;fill:#70768d;" xml:space="preserve">
<g>
	<g>
		<path d="M448,106.667h-64v-32C384,68.771,379.229,64,373.333,64H10.667C4.771,64,0,68.771,0,74.667v330.667
			C0,428.865,19.146,448,42.667,448h298.667C364.854,448,384,428.865,384,405.333V384h64c35.292,0,64-28.708,64-64V170.667
			C512,135.375,483.292,106.667,448,106.667z M64,202.667v-64C64,132.771,68.771,128,74.667,128h64
			c5.896,0,10.667,4.771,10.667,10.667v64c0,5.896-4.771,10.667-10.667,10.667h-64C68.771,213.333,64,208.563,64,202.667z
			 M298.667,373.333c0,5.896-4.771,10.667-10.667,10.667h-42.667c-5.896,0-10.667-4.771-10.667-10.667v-32h-85.333v32
			c0,5.896-4.771,10.667-10.667,10.667H96c-5.896,0-10.667-4.771-10.667-10.667V266.667C85.333,260.771,90.104,256,96,256h53.333
			v-32c0-5.896,4.771-10.667,10.667-10.667h64c5.896,0,10.667,4.771,10.667,10.667v32H288c5.896,0,10.667,4.771,10.667,10.667
			V373.333z M320,202.667c0,5.896-4.771,10.667-10.667,10.667h-64c-5.896,0-10.667-4.771-10.667-10.667v-64
			c0-5.896,4.771-10.667,10.667-10.667h64c5.896,0,10.667,4.771,10.667,10.667V202.667z M448,320h-64V170.667h64V320z"/>
	</g>
</g>
<g>
</g>
<g>
</g>
<g>
</g>
<g>
</g>
<g>
</g>
<g>
</g>
<g>
</g>
<g>
</g>
<g>
</g>
<g>
</g>
<g>
</g>
<g>
</g>
<g>
</g>
<g>
</g>
<g>
</g>
</svg>
